# xmcd
#
# Track frame offsets: 
#        150
#        16397
#        44565
#        73498
#        92871
#        110878
#        134414
#        157106
#        183177
#        208079
#        243924
#
# Disc length: 3358 seconds
#
# Revision: 1
# Processed by: cddbd v1.5.2PL0 Copyright (c) Steve Scherf et al.
# Submitted via: ExactAudioCopy v1.0b3
#
DISCID=a80d1c0b
DTITLE=Krzysztof Ścierański - Independent
DYEAR=2004
DGENRE=Jazz
TTITLE0=Anioły i śnieg
TTITLE1=Botzwana
TTITLE2=African Waltz
TTITLE3=Let Me Say It
TTITLE4=August
TTITLE5=Moon, You and Me
TTITLE6=Mad House (Bolondok haza)
TTITLE7=California
TTITLE8=Loops
TTITLE9=Message from Spain
TTITLE10=Anioły i śnieg - finał
EXTD=YEAR: 2004
EXTT0=
EXTT1=
EXTT2=
EXTT3=
EXTT4=
EXTT5=
EXTT6=
EXTT7=
EXTT8=
EXTT9=
EXTT10=
PLAYORDER=
